<svg xmlns="http://www.w3.org/2000/svg" viewBox="0 0 200 120" preserveAspectRatio="xMidYMid">
  <rect width="200" height="120" fill="none"/>
  <circle cx="66" cy="60" r="44" fill="#EB001B"/>
  <circle cx="134" cy="60" r="44" fill="#F79E1B"/>
  <path d="M100,26.084 C91.316,26.084 83.184,28.988 76.544,33.916 C71.552,37.624 67.572,42.444 64.908,47.924 C62.908,52.028 61.66,55.452 61.66,60 C61.66,64.548 62.908,67.972 64.908,72.076 C67.572,77.556 71.552,82.376 76.544,86.084 C83.184,91.012 91.316,93.916 100,93.916 C108.684,93.916 116.816,91.012 123.456,86.084 C128.448,82.376 132.428,77.556 135.092,72.076 C137.092,67.972 138.34,64.548 138.34,60 C138.34,55.452 137.092,52.028 135.092,47.924 C132.428,42.444 128.448,37.624 123.456,33.916 C116.816,28.988 108.684,26.084 100,26.084 Z" fill="#FF5F00"/>
</svg>
