<?xml version="1.0" encoding="UTF-8"?>
<svg version="1.1" xmlns="http://www.w3.org/2000/svg" width="1000" height="1000">
<path d="M0 0 C0.14695312 0.845625 0.29390625 1.69125 0.4453125 2.5625 C2.89259662 14.9395691 8.50788702 20.81024615 17.51171875 29.19140625 C22.54482215 34.87241308 23.56750564 40.3711183 23.33984375 47.7109375 C22.46131868 56.21344447 19.79340575 63.63363544 15.85473633 71.12402344 C10.72078492 81.00390164 9.79501092 88.99207038 11 100 C11.08217773 100.75458496 11.16435547 101.50916992 11.24902344 102.28662109 C13.53379335 121.3331461 19.75554147 138.77080625 30 155 C30.87398437 154.32195312 31.74796875 153.64390625 32.6484375 152.9453125 C62.22325764 130.39675761 100.65237317 113.99067647 138.4375 118.875 C142.59077747 119.47035035 146.16206791 120.29265825 150 122 C149.65412517 129.70272599 146.6875381 135.65268381 143.3125 142.5 C142.79494141 143.58925781 142.27738281 144.67851562 141.74414062 145.80078125 C133.22328265 163.35183866 133.22328265 163.35183866 126 166 C123.15234375 165.63671875 123.15234375 165.63671875 119.9375 164.6875 C97.26084132 159.2488853 73.03172458 164.88026861 52 174 C51.01 174.66 50.02 175.32 49 176 C63.21631446 187.54030233 79.36717961 195.28468357 95.75 203.25 C96.44870209 203.59016144 97.14740417 203.93032288 97.86727905 204.28079224 C102.56010546 206.55978749 107.26947768 208.80031591 112 211 C112.99277954 211.46321655 112.99277954 211.46321655 114.00561523 211.93579102 C115.91939599 212.82075864 117.84042832 213.6870704 119.765625 214.546875 C120.87196289 215.04541992 121.97830078 215.54396484 123.11816406 216.05761719 C127.14517198 217.37448016 128.67962034 216.66135298 132.35571289 214.82006836 C133.2193042 214.33159424 134.08289551 213.84312012 134.97265625 213.33984375 C135.94525391 212.79714844 136.91785156 212.25445312 137.91992188 211.6953125 C139.47549805 210.82519531 139.47549805 210.82519531 141.0625 209.9375 C163.78986316 197.44633348 187.09001362 187.61299607 213.375 187.6875 C214.50421875 187.67138672 215.6334375 187.65527344 216.796875 187.63867188 C224.89093935 187.6340414 232.19911809 188.87138851 240 191 C242.30720284 200.54886231 234.85898229 211.59299466 230.5 220 C230.14502441 220.69319336 229.79004883 221.38638672 229.42431641 222.10058594 C226.94557277 226.74444998 224.14439993 231.65679874 220 235 C216.81469431 235.37550352 214.10284554 234.73740465 211 234 C195.37608998 230.90215577 181.46785584 232.02336795 166 235 C169.17004478 237.65874724 172.62574635 239.40819026 176.29467773 241.25952148 C191.56424392 248.97401545 204.75332978 258.07362731 217 270 C217.65226562 270.57878906 218.30453125 271.15757812 218.9765625 271.75390625 C233.4349253 284.92488058 241.27779951 306.29216701 242.28125 325.3828125 C243.16617581 353.88479804 231.54531454 380.25019251 215 403 C214.319375 403.96164062 213.63875 404.92328125 212.9375 405.9140625 C212.256875 406.82929687 211.57625 407.74453125 210.875 408.6875 C210.27429688 409.49574219 209.67359375 410.30398438 209.0546875 411.13671875 C206.44742334 413.50110089 204.45194172 413.71152328 201 414 C201.14562803 407.59236667 203.94537075 403.44270296 207.21875 398.04296875 C216.92984443 381.45318244 216.68521712 362.16919742 212 344 C202.87680653 314.31977244 180.48112349 295.8190265 154.07763672 281.61035156 C144.20173843 276.4428579 134.13929472 271.62700314 124 267 C122.92250488 266.49710449 121.84500977 265.99420898 120.73486328 265.47607422 C119.68927246 265.00830566 118.64368164 264.54053711 117.56640625 264.05859375 C116.63900635 263.63763428 115.71160645 263.2166748 114.75610352 262.78295898 C110.81616035 261.66369264 107.73641229 262.1454283 104.07226562 263.94873047 C103.52248047 264.33432129 102.97269531 264.71991211 102.40625 265.1171875 C101.77549561 265.55361572 101.14474121 265.99004395 100.49487305 266.43969727 C99.83656494 266.91334717 99.17825684 267.38699707 98.5 267.875 C97.80366455 268.36605225 97.1073291 268.85710449 96.38989258 269.36303711 C81.37175912 280.05278534 67.33290685 291.33271776 56 306 C55.23300781 306.96292969 54.46601563 307.92585938 53.67578125 308.91796875 C48.67528391 315.27125764 44.03247099 321.80505524 39.5 328.5 C34.26024583 336.23385886 28.86348327 343.72441789 23 351 C22.57541504 351.52754883 22.15083008 352.05509766 21.71337891 352.59863281 C-3.6098479 383.85655143 -39.35274226 410.37813951 -80.50878906 414.80517578 C-103.35520366 416.59187108 -126.62436811 415.75553377 -145.51953125 401.3046875 C-153.76807488 393.64068634 -158.38200254 382.8328417 -159.16015625 371.7109375 C-159.93642944 348.82775375 -148.78161919 326.41481385 -135.23730469 308.56616211 C-132.20253263 304.66209045 -132.20253263 304.66209045 -131 300 C-131.48583224 297.80977603 -131.48583224 297.80977603 -132.375 295.625 C-141.81544183 270.65635478 -130.96790603 239.14984897 -120.68041992 216.26318359 C-116.31277166 206.93268887 -111.36213937 196.36213937 -104 189 C-101.875 189.375 -101.875 189.375 -100 190 C-100.52207473 195.04884466 -101.6751633 198.87913191 -103.875 203.4375 C-108.78800045 214.23993404 -110.94255047 226.1410014 -110 238 C-109.91878906 239.03640625 -109.83757812 240.0728125 -109.75390625 241.140625 C-108.60338245 251.15136816 -105.63776916 260.43264268 -97.6875 267.0625 C-88.95287361 273.01133192 -80.46629745 274.01101446 -70 273 C-61.5331188 271.27164515 -54.55367921 267.58872031 -48 262 C-47.39824951 261.49227051 -46.79649902 260.98454102 -46.17651367 260.46142578 C-40.38906948 255.18843659 -37.12552582 249.25454943 -33.72909546 242.25906372 C-32.15074018 239.01475142 -30.51466365 235.79967799 -28.8828125 232.58203125 C-28.55671494 231.93662888 -28.23061737 231.2912265 -27.89463806 230.62626648 C-24.86049261 224.65301859 -21.59990294 218.82837239 -18.1875 213.0625 C-17.6618042 212.1741748 -17.1361084 211.28584961 -16.59448242 210.37060547 C-12.67755588 203.87612416 -8.36011702 197.80265457 -3.6328125 191.875 C-1.75118392 189.12581504 -1.75118392 189.12581504 -2.0390625 186.06640625 C-3.14846475 182.52624054 -4.63867169 179.26672932 -6.25 175.9375 C-9.14489907 169.62061104 -11.1984269 163.31878049 -12.8125 156.5625 C-13.00682617 155.76642334 -13.20115234 154.97034668 -13.40136719 154.15014648 C-16.42752357 140.75980338 -17.32116817 127.27099099 -17.20635986 113.58636475 C-17.18696308 111.2477654 -17.18324723 108.90947473 -17.18115234 106.57080078 C-17.15637057 98.72948547 -16.92390861 90.96291043 -16.33276367 83.140625 C-15.64550744 73.99228359 -15.79955641 68.32322662 -22 61 C-23.15423647 57.53729059 -23.24090076 54.71406134 -23.3125 51.0625 C-23.36857422 49.22365234 -23.36857422 49.22365234 -23.42578125 47.34765625 C-22.91005941 37.06261922 -17.46881622 27.21268338 -13.0625 18.125 C-12.55009766 17.03703125 -12.03769531 15.9490625 -11.50976562 14.828125 C-4.37667615 0 -4.37667615 0 0 0 Z M3.77734375 203.7890625 C3.16157471 204.39298828 2.54580566 204.99691406 1.91137695 205.61914062 C-12.19341382 219.95246913 -20.96782374 235.10904004 -30 253 C-42.2799894 277.17998697 -57.87952405 305.36317123 -84.875 314.875 C-96.22072657 318.17741684 -107.72564971 318.34198579 -118.3671875 312.7578125 C-123.73536896 309.52926209 -123.73536896 309.52926209 -125 307 C-125.66 307 -126.32 307 -127 307 C-127.33773438 307.89203125 -127.67546875 308.7840625 -128.0234375 309.703125 C-128.69246094 311.45882812 -128.69246094 311.45882812 -129.375 313.25 C-129.81585938 314.41015625 -130.25671875 315.5703125 -130.7109375 316.765625 C-132 320 -132 320 -133.140625 322.109375 C-136.26148866 328.97527504 -133.72515284 337.53358988 -131.2578125 344.2109375 C-126.33221405 355.13291666 -117.34148235 362.05495583 -106.54296875 366.71484375 C-78.09539816 377.03375304 -45.85404017 371.52984077 -19.04541016 359.09326172 C13.73253515 343.13089108 34.23045449 317.08007864 55 288.1640625 C63.94297949 275.72632019 73.00069861 263.58228823 84.12890625 252.99609375 C86.22796454 251.21279653 86.22796454 251.21279653 86 249 C85.34217529 248.68885254 84.68435059 248.37770508 84.0065918 248.05712891 C30.85666698 222.86649579 30.85666698 222.86649579 12.12890625 202.90625 C8.62316803 199.76716697 6.79248128 200.8274586 3.77734375 203.7890625 Z " fill="#FFFFFF" transform="translate(457,235)"/>
<path d="M0 0 C1.98 0 3.96 0 6 0 C6 9.57 6 19.14 6 29 C9.63 29 13.26 29 17 29 C17 23.39 17 17.78 17 12 C18.65 12 20.3 12 22 12 C22 17.61 22 23.22 22 29 C23.98 28.67 25.96 28.34 28 28 C28.33 22.72 28.66 17.44 29 12 C30.98 12 32.96 12 35 12 C35 17.61 35 23.22 35 29 C36.98 29 38.96 29 41 29 C41 22.73 41 16.46 41 10 C43.475 10.495 43.475 10.495 46 11 C47.32594359 16.96674616 47.0884587 22.92583615 47 29 C50.3 28.67 53.6 28.34 57 28 C56.97679687 27.20335937 56.95359375 26.40671875 56.9296875 25.5859375 C56.75043937 15.06151142 56.75043937 15.06151142 59 10 C65.886598 8.96638764 70.89092461 8.36055083 77 12 C79.34770643 15.52155964 79.37669614 17.50771843 79.625 21.6875 C79.73714844 23.45673828 79.73714844 23.45673828 79.8515625 25.26171875 C79.90054688 26.16535156 79.94953125 27.06898438 80 28 C82.97 28.33 85.94 28.66 89 29 C89 19.43 89 9.86 89 0 C90.98 0 92.96 0 95 0 C95 9.57 95 19.14 95 29 C98.3 29 101.6 29 105 29 C105 19.43 105 9.86 105 0 C106.98 0 108.96 0 111 0 C111 11.55 111 23.1 111 35 C92.48309969 35.04010881 92.48309969 35.04010881 84.58398438 35.04882812 C79.19619765 35.05480355 73.80842794 35.06186916 68.4206543 35.07543945 C64.07644654 35.0863127 59.73225704 35.09228626 55.38803673 35.09487724 C53.73146973 35.09672348 52.07490372 35.10032871 50.4183445 35.10573006 C48.09633865 35.11299935 45.774408 35.11398845 43.45239258 35.11352539 C42.42739906 35.1189183 42.42739906 35.1189183 41.38169861 35.12442017 C38.57057927 35.11836258 35.9807515 34.99605372 33.22172546 34.43040466 C30.8403904 33.78048914 30.8403904 33.78048914 28 35 C25.86205475 35.0833804 23.72157991 35.10733747 21.58203125 35.09765625 C19.88784058 35.09390991 19.88784058 35.09390991 18.15942383 35.09008789 C16.00769653 35.07643188 16.00769653 35.07643188 13.8125 35.0625 C9.254375 35.041875 4.69625 35.02125 0 35 C0 23.45 0 11.9 0 0 Z M63 15 C63 19.62 63 24.24 63 29 C66.63 29 70.26 29 74 29 C74.0928125 26.64875 74.0928125 26.64875 74.1875 24.25 C74.22230469 23.36828125 74.25710938 22.4865625 74.29296875 21.578125 C73.94263279 18.49516854 73.15103217 17.20605858 71 15 C66.90823362 13.84099436 66.90823362 13.84099436 63 15 Z " fill="#FFFFFF" transform="translate(471,685)"/>
<path d="M0 0 C4.10108886 1.62156024 6.83148167 4.5767703 9.859375 7.6640625 C10.683237 8.49216934 10.683237 8.49216934 11.52374268 9.33700562 C13.27059293 11.09501815 15.01034601 12.8598689 16.75 14.625 C17.93573591 15.8207708 19.1219288 17.01608865 20.30859375 18.2109375 C23.21105085 21.13540253 26.1071641 24.06601874 29 27 C27.37843976 31.10108886 24.4232297 33.83148167 21.3359375 36.859375 C20.78386627 37.40861633 20.23179504 37.95785767 19.66299438 38.52374268 C17.90498185 40.27059293 16.1401311 42.01034601 14.375 43.75 C13.1792292 44.93573591 11.98391135 46.1219288 10.7890625 47.30859375 C7.86459747 50.21105085 4.93398126 53.1071641 2 56 C-2.10108886 54.37843976 -4.83148167 51.4232297 -7.859375 48.3359375 C-8.40861633 47.78386627 -8.95785767 47.23179504 -9.52374268 46.66299438 C-11.27059293 44.90498185 -13.01034601 43.1401311 -14.75 41.375 C-15.93573591 40.1792292 -17.1219288 38.98391135 -18.30859375 37.7890625 C-21.21105085 34.86459747 -24.1071641 31.93398126 -27 29 C-25.37843976 24.89891114 -22.4232297 22.16851833 -19.3359375 19.140625 C-18.78386627 18.59138367 -18.23179504 18.04214233 -17.66299438 17.47625732 C-15.90498185 15.72940707 -14.1401311 13.98965399 -12.375 12.25 C-11.1792292 11.06426409 -9.98391135 9.8780712 -8.7890625 8.69140625 C-5.86459747 5.78894915 -2.93398126 2.8928359 0 0 Z " fill="#FFFFFF" transform="translate(673,356)"/>
<path d="M0 0 C1.09441406 -0.00386719 1.09441406 -0.00386719 2.2109375 -0.0078125 C5.0366567 0.14764778 7.83351271 0.65975212 10.625 1.125 C10.625 7.395 10.625 13.665 10.625 20.125 C14.585 20.125 18.545 20.125 22.625 20.125 C22.625 14.515 22.625 8.905 22.625 3.125 C24.275 3.125 25.925 3.125 27.625 3.125 C27.625 8.735 27.625 14.345 27.625 20.125 C29.605 20.125 31.585 20.125 33.625 20.125 C33.955 14.515 34.285 8.905 34.625 3.125 C36.605 3.125 38.585 3.125 40.625 3.125 C40.625 8.735 40.625 14.345 40.625 20.125 C42.605 20.125 44.585 20.125 46.625 20.125 C46.295 13.855 45.965 7.585 45.625 1.125 C47.275 1.125 48.925 1.125 50.625 1.125 C52.93344801 7.47323202 52.82318283 13.41981414 52.625 20.125 C56.255 20.125 59.885 20.125 63.625 20.125 C63.625 14.515 63.625 8.905 63.625 3.125 C65.275 3.125 66.925 3.125 68.625 3.125 C68.625 8.735 68.625 14.345 68.625 20.125 C70.605 19.465 72.585 18.805 74.625 18.125 C74.955 13.175 75.285 8.225 75.625 3.125 C77.275 3.125 78.925 3.125 80.625 3.125 C80.625 8.735 80.625 14.345 80.625 20.125 C82.935 20.125 85.245 20.125 87.625 20.125 C87.295 13.855 86.965 7.585 86.625 1.125 C88.275 1.125 89.925 1.125 91.625 1.125 C92.62505304 4.12515912 92.74075585 6.09923756 92.72265625 9.23046875 C92.71782227 10.70483398 92.71782227 10.70483398 92.71289062 12.20898438 C92.70032227 13.74522461 92.70032227 13.74522461 92.6875 15.3125 C92.68298828 16.34826172 92.67847656 17.38402344 92.67382812 18.45117188 C92.6620401 21.00917266 92.64558515 23.56705733 92.625 26.125 C91.01956074 26.14023259 89.41407983 26.15111813 87.80859375 26.16015625 C86.91454834 26.16668213 86.02050293 26.17320801 85.09936523 26.17993164 C82.50950151 26.1224359 80.15296902 25.66123585 77.625 25.125 C76.14 25.62 76.14 25.62 74.625 26.125 C72.16985308 26.22154458 69.74402806 26.26500761 67.2890625 26.2578125 C66.57269623 26.25876923 65.85632996 26.25972595 65.11825562 26.26071167 C63.60357577 26.26139167 62.08889299 26.25954995 60.57421875 26.25537109 C58.26555763 26.25003595 55.95709245 26.25531403 53.6484375 26.26171875 C52.17447874 26.26105763 50.7005201 26.25977577 49.2265625 26.2578125 C48.53994537 26.25983673 47.85332825 26.26186096 47.14590454 26.26394653 C44.28861258 26.25010345 41.64163928 26.12840713 38.83740234 25.55419922 C36.4639332 24.90584823 36.4639332 24.90584823 33.625 26.125 C30.97545129 26.23390311 28.35303097 26.28903698 25.703125 26.29296875 C24.92491394 26.29629715 24.14670288 26.29962555 23.34490967 26.30305481 C21.6973937 26.30811632 20.04986749 26.31046337 18.40234375 26.31030273 C15.89826219 26.31247978 13.39462808 26.33061723 10.890625 26.34960938 C9.28645983 26.35254546 7.68229258 26.35452882 6.078125 26.35546875 C4.96525116 26.36624702 4.96525116 26.36624702 3.82989502 26.37724304 C-1.51053225 26.3541189 -7.11614287 26.1251741 -11.28515625 22.43359375 C-12.78096481 19.26505304 -12.80877075 16.68180513 -12.8125 13.1875 C-12.83183594 11.98222656 -12.85117187 10.77695312 -12.87109375 9.53515625 C-12.28836024 5.52943691 -11.28322896 3.90033976 -8.375 1.125 C-5.61278807 0.00046313 -2.96446648 -0.01040164 0 0 Z M-6.375 8.125 C-7.77957737 10.93415474 -7.62395157 13.01310534 -7.375 16.125 C-6.27027268 18.38626811 -6.27027268 18.38626811 -4.375 20.125 C-1.86619384 20.60761667 -1.86619384 20.60761667 0.8125 20.375 C2.400625 20.2925 3.98875 20.21 5.625 20.125 C5.625 15.505 5.625 10.885 5.625 6.125 C0.49551373 5.01864022 -2.17954472 4.79331492 -6.375 8.125 Z " fill="#FFFFFF" transform="translate(666.375,693.875)"/>
<path d="M0 0 C0.66 0.33 1.32 0.66 2 1 C2 7.27 2 13.54 2 20 C6.29 20 10.58 20 15 20 C14.505 19.01 14.505 19.01 14 18 C13.62516781 12.58698217 14.09226073 7.3329682 15 2 C20.78535354 -0.25769894 25.43614942 -1.01586532 31.3125 1.3125 C34 3 34 3 36 6 C37 11 37 11 37 26 C25.45 26 13.9 26 2 26 C1.67 28.31 1.34 30.62 1 33 C-0.671875 35.421875 -0.671875 35.421875 -3 37 C-6.015625 37.390625 -6.015625 37.390625 -9.25 37.25 C-10.32765625 37.21390625 -11.4053125 37.1778125 -12.515625 37.140625 C-13.33546875 37.09421875 -14.1553125 37.0478125 -15 37 C-15 35.02 -15 33.04 -15 31 C-11.7 31 -8.4 31 -5 31 C-4.34 29.35 -3.68 27.7 -3 26 C-4.010625 26.061875 -5.02125 26.12375 -6.0625 26.1875 C-10.55644427 25.97350265 -13.18019047 25.39674323 -17 23 C-19.48035197 17.10916408 -19.5632244 11.19972672 -18 5 C-14.14125368 -1.89061842 -7.00836967 -0.66928496 0 0 Z M-11.9375 6.5 C-13.51709512 10.2166944 -13.32052751 12.96135341 -13 17 C-12.01 18.485 -12.01 18.485 -11 20 C-9.02252878 20.36297936 -9.02252878 20.36297936 -6.875 20.1875 C-5.59625 20.125625 -4.3175 20.06375 -3 20 C-3 15.05 -3 10.1 -3 5 C-9.48587017 4.28579794 -9.48587017 4.28579794 -11.9375 6.5 Z M20 6 C20 10.62 20 15.24 20 20 C23.63 20 27.26 20 31 20 C31.061875 18.246875 31.12375 16.49375 31.1875 14.6875 C31.22230469 13.70136719 31.25710938 12.71523438 31.29296875 11.69921875 C31.22654048 8.9944551 31.22654048 8.9944551 29.6796875 7.19140625 C26.70980202 5.08485957 23.29033101 4.35483449 20 6 Z " fill="#FFFFFF" transform="translate(782,694)"/>
<path d="M0 0 C1.98 0 3.96 0 6 0 C6 9.57 6 19.14 6 29 C9.63 29 13.26 29 17 29 C17 23.39 17 17.78 17 12 C18.65 12 20.3 12 22 12 C22 17.61 22 23.22 22 29 C23.98 28.34 25.96 27.68 28 27 C28.33 22.05 28.66 17.1 29 12 C30.98 12 32.96 12 35 12 C35.02709444 14.08326131 35.04643873 16.16662441 35.0625 18.25 C35.07410156 19.41015625 35.08570313 20.5703125 35.09765625 21.765625 C35.01782092 24.40977128 34.78643778 26.49826091 34 29 C36.31 29 38.62 29 41 29 C40.67 22.73 40.34 16.46 40 10 C41.65 10 43.3 10 45 10 C46.25433458 13.76300374 46.10695422 17.27210909 46.0625 21.1875 C46.05798828 21.93708984 46.05347656 22.68667969 46.04882812 23.45898438 C46.03706354 25.30602383 46.01912865 27.15302213 46 29 C49.63 29 53.26 29 57 29 C57 22.73 57 16.46 57 10 C58.65 10 60.3 10 62 10 C62 18.25 62 26.5 62 35 C57.77079065 35.02697582 53.5417535 35.04682781 49.3125 35.0625 C48.11431641 35.07087891 46.91613281 35.07925781 45.68164062 35.08789062 C44.52470703 35.09111328 43.36777344 35.09433594 42.17578125 35.09765625 C41.11270752 35.10289307 40.04963379 35.10812988 38.9543457 35.11352539 C36 35 36 35 33.30151367 34.43139648 C30.85221399 33.77948837 30.85221399 33.77948837 28 35 C25.86205475 35.0833804 23.72157991 35.10733747 21.58203125 35.09765625 C19.88784058 35.09390991 19.88784058 35.09390991 18.15942383 35.09008789 C16.00769653 35.07643188 16.00769653 35.07643188 13.8125 35.0625 C9.254375 35.041875 4.69625 35.02125 0 35 C0 23.45 0 11.9 0 0 Z " fill="#FFFFFF" transform="translate(247,685)"/>
<path d="M0 0 C1.09441406 -0.00386719 1.09441406 -0.00386719 2.2109375 -0.0078125 C5.0366567 0.14764778 7.83351271 0.65975212 10.625 1.125 C10.625 7.395 10.625 13.665 10.625 20.125 C14.255 20.125 17.885 20.125 21.625 20.125 C21.625 13.855 21.625 7.585 21.625 1.125 C23.605 1.125 25.585 1.125 27.625 1.125 C27.625 7.395 27.625 13.665 27.625 20.125 C31.915 20.125 36.205 20.125 40.625 20.125 C40.625 13.855 40.625 7.585 40.625 1.125 C42.275 1.125 43.925 1.125 45.625 1.125 C45.625 9.375 45.625 17.625 45.625 26.125 C38.91706346 26.17099728 32.20967776 26.21079796 25.50170898 26.23486328 C23.22141665 26.24489935 20.94113711 26.25853115 18.66088867 26.27587891 C15.37675816 26.30023233 12.09279833 26.31150728 8.80859375 26.3203125 C7.79478134 26.33063507 6.78096893 26.34095764 5.73643494 26.35159302 C-7.06509247 26.35360644 -7.06509247 26.35360644 -11.26171875 22.3046875 C-13.75424316 17.42458707 -13.77361786 11.95199853 -12.625 6.6875 C-11.41458833 4.20615608 -10.59254657 2.7455148 -8.375 1.125 C-5.53439229 0.24489718 -2.96608038 -0.0104073 0 0 Z M-6.375 7.125 C-7.93274936 10.24049872 -7.93980622 13.7294388 -7.375 17.125 C-6.23343664 18.95931653 -6.23343664 18.95931653 -4.375 20.125 C-2.09169899 20.48646457 -2.09169899 20.48646457 0.3125 20.3125 C1.735625 20.250625 3.15875 20.18875 4.625 20.125 C4.625 15.505 4.625 10.885 4.625 6.125 C-1.37723652 4.97726069 -1.37723652 4.97726069 -6.375 7.125 Z " fill="#FFFFFF" transform="translate(194.375,693.875)"/>
<path d="M0 0 C10.74331367 -0.86022974 10.74331367 -0.86022974 14.5625 2.1875 C19.56996774 7.96534739 19.19762401 12.58909978 19 20 C22.3 19.67 25.6 19.34 29 19 C28.67 18.01 28.34 17.02 28 16 C27.60691305 11.20433923 27.51729858 8.93092416 29.75 4.625 C31.93434243 2.0766005 32.94302978 1.14294593 36 0 C38.54296875 -0.01171875 38.54296875 -0.01171875 41.1875 0.3125 C42.06792969 0.41175781 42.94835937 0.51101563 43.85546875 0.61328125 C46 1 46 1 47 2 C47.04063832 3.66617115 47.042721 5.33388095 47 7 C45.01432292 6.70703125 43.02864583 6.4140625 41.04296875 6.12109375 C38.7974658 5.86095201 38.7974658 5.86095201 36 7 C33.93599206 11.12801588 34.92158089 15.68632355 36 20 C40.29 20 44.58 20 49 20 C49 21.98 49 23.96 49 26 C32.17 26 15.34 26 -2 26 C-2 24.02 -2 22.04 -2 20 C3.28 20 8.56 20 14 20 C13.566875 18.06125 13.13375 16.1225 12.6875 14.125 C12.44386719 13.03445313 12.20023437 11.94390625 11.94921875 10.8203125 C11.22097942 7.70557647 11.22097942 7.70557647 8 6 C5.67612053 5.60612212 3.34206251 5.26513915 1 5 C0.67 3.35 0.34 1.7 0 0 Z " fill="#FFFFFF" transform="translate(418,694)"/>
<path d="M0 0 C1.65 0 3.3 0 5 0 C5 11.55 5 23.1 5 35 C-2.92 35 -10.84 35 -19 35 C-19 33.02 -19 31.04 -19 29 C-17.02 29 -15.04 29 -13 29 C-13 21.41 -13 13.82 -13 6 C-11.35 6 -9.7 6 -8 6 C-8 13.59 -8 21.18 -8 29 C-5.36 29 -2.72 29 0 29 C0 19.43 0 9.86 0 0 Z " fill="#FFFFFF" transform="translate(333,685)"/>
<path d="M0 0 C2.27406098 -0.28059316 4.49730164 -0.69913653 6.74609375 -1.13671875 C9 -1 9 -1 11.26953125 0.40234375 C13.84538199 4.26902713 13.43415049 7.71706497 13.25 12.25 C13.23195313 13.09046875 13.21390625 13.9309375 13.1953125 14.796875 C13.14830798 16.86507395 13.07656724 18.93268441 13 21 C11.68 21 10.36 21 9 21 C8.67 15.39 8.34 9.78 8 4 C5.69 4 3.38 4 1 4 C1 9.61 1 15.22 1 21 C-0.65 21 -2.3 21 -4 21 C-4.33 15.72 -4.66 10.44 -5 5 C-7.97 4.505 -7.97 4.505 -11 4 C-11 9.61 -11 15.22 -11 21 C-12.65 21 -14.3 21 -16 21 C-16 14.07 -16 7.14 -16 0 C-4.8 -1.6 -4.8 -1.6 0 0 Z " fill="#FFFFFF" transform="translate(592,744)"/>
<path d="M0 0 C1.98 0 3.96 0 6 0 C6 8.25 6 16.5 6 25 C1.0809375 25.061875 1.0809375 25.061875 -3.9375 25.125 C-4.95191162 25.14320801 -5.96632324 25.16141602 -7.01147461 25.18017578 C-12.81402113 25.21508678 -18.480419 24.95398178 -24 23 C-26 21 -26 21 -26.23046875 18.06640625 C-26.21628906 16.91011719 -26.20210938 15.75382813 -26.1875 14.5625 C-26.18105469 13.40878906 -26.17460937 12.25507812 -26.16796875 11.06640625 C-26 8 -26 8 -25 5 C-23.35 5 -21.7 5 -20 5 C-20.01160156 5.85464844 -20.02320313 6.70929687 -20.03515625 7.58984375 C-20.04417969 8.69457031 -20.05320312 9.79929687 -20.0625 10.9375 C-20.07410156 12.03964844 -20.08570313 13.14179687 -20.09765625 14.27734375 C-20.31262571 16.91447634 -20.31262571 16.91447634 -19 18 C-17.58672053 18.15620555 -16.1664541 18.25056173 -14.74609375 18.31640625 C-13.59258423 18.37356812 -13.59258423 18.37356812 -12.41577148 18.43188477 C-10.9415271 18.49653931 -10.9415271 18.49653931 -9.4375 18.5625 C-6.323125 18.706875 -3.20875 18.85125 0 19 C0 12.73 0 6.46 0 0 Z " fill="#FFFFFF" transform="translate(393,695)"/>
<path d="M0 0 C1.65 0 3.3 0 5 0 C5 3.96 5 7.92 5 12 C8.96 12 12.92 12 17 12 C17 8.04 17 4.08 17 0 C18.65 0 20.3 0 22 0 C22 9.57 22 19.14 22 29 C20.35 29 18.7 29 17 29 C17 24.71 17 20.42 17 16 C13.04 16 9.08 16 5 16 C5 20.29 5 24.58 5 29 C3.35 29 1.7 29 0 29 C0 19.43 0 9.86 0 0 Z " fill="#FFFFFF" transform="translate(528,736)"/>
<path d="M0 0 C3.3 0 6.6 0 10 0 C11.00000951 3.80778697 11.99684236 7.61638973 12.99072266 11.42578125 C13.49603307 13.35981689 14.00386608 15.29319287 14.51171875 17.2265625 C14.82753906 18.43828125 15.14335937 19.65 15.46875 20.8984375 C15.90864258 22.57945557 15.90864258 22.57945557 16.35742188 24.29443359 C17 27 17 27 17 29 C15.35 29 13.7 29 12 29 C11.34 26.69 10.68 24.38 10 22 C6.7 22 3.4 22 0 22 C-0.66 24.31 -1.32 26.62 -2 29 C-3.65 29 -5.3 29 -7 29 C-4.7392746 19.31445564 -2.45165321 9.63945469 0 0 Z M4 4 C3.01 8.62 2.02 13.24 1 18 C3.64 18 6.28 18 9 18 C8.01 13.38 7.02 8.76 6 4 C5.34 4 4.68 4 4 4 Z " fill="#FFFFFF" transform="translate(188,736)"/>
<path d="M0 0 C2.97 0 5.94 0 9 0 C14.57446809 19.34042553 14.57446809 19.34042553 16 29 C14.35 29 12.7 29 11 29 C10.67 26.69 10.34 24.38 10 22 C6.37 22 2.74 22 -1 22 C-1.33 24.31 -1.66 26.62 -2 29 C-3.65 29 -5.3 29 -7 29 C-6.3850185 22.39867961 -4.82360905 16.34537846 -2.9375 10 C-2.65583984 9.03449219 -2.37417969 8.06898438 -2.08398438 7.07421875 C-1.39477333 4.71454704 -0.69814606 2.35704359 0 0 Z M4 4 C3.49307308 5.5811292 2.99473557 7.16501383 2.5 8.75 C2.2215625 9.63171875 1.943125 10.5134375 1.65625 11.421875 C0.83554715 14.20267529 0.83554715 14.20267529 1 18 C3.31 18 5.62 18 8 18 C7.48594831 13.03083364 6.76615118 8.70973649 5 4 C4.67 4 4.34 4 4 4 Z " fill="#FFFFFF" transform="translate(774,736)"/>
<path d="M0 0 C1.65 0 3.3 0 5 0 C5 9.9 5 19.8 5 30 C0.38 30 -4.24 30 -9 30 C-13 26 -13 26 -13.56640625 22.94140625 C-13.55597785 13.92083831 -13.55597785 13.92083831 -11 9.6875 C-6.97992 7.426205 -4.55947131 7.61360413 0 8 C0 5.36 0 2.72 0 0 Z M-8 14 C-8.36416047 16.43693311 -8.36416047 16.43693311 -8.1875 19.125 C-8.16042969 20.03507813 -8.13335938 20.94515625 -8.10546875 21.8828125 C-8.07066406 22.58148437 -8.03585937 23.28015625 -8 24 C-6.21771064 25.14209817 -6.21771064 25.14209817 -4 26 C-2.68 25.67 -1.36 25.34 0 25 C0 21.04 0 17.08 0 13 C-4.88214887 11.41074435 -4.88214887 11.41074435 -8 14 Z " fill="#FFFFFF" transform="translate(814,735)"/>
<path d="M0 0 C1.32 0 2.64 0 4 0 C4 9.9 4 19.8 4 30 C-0.29 30 -4.58 30 -9 30 C-13 26 -13 26 -13.56640625 22.94140625 C-13.55597785 13.92083831 -13.55597785 13.92083831 -11 9.6875 C-6.97992 7.426205 -4.55947131 7.61360413 0 8 C0 5.36 0 2.72 0 0 Z M-8 14 C-8.36416047 16.43693311 -8.36416047 16.43693311 -8.1875 19.125 C-8.16042969 20.03507813 -8.13335937 20.94515625 -8.10546875 21.8828125 C-8.07066406 22.58148437 -8.03585937 23.28015625 -8 24 C-6.21771064 25.14209817 -6.21771064 25.14209817 -4 26 C-2.68 25.67 -1.36 25.34 0 25 C0 21.04 0 17.08 0 13 C-4.88214887 11.41074435 -4.88214887 11.41074435 -8 14 Z " fill="#FFFFFF" transform="translate(366,735)"/>
<path d="M0 0 C0.7734375 -0.01417969 1.546875 -0.02835938 2.34375 -0.04296875 C4.5 0.1875 4.5 0.1875 7.5 2.1875 C8.811212 5.51423215 8.60092408 8.90248461 8.5625 12.4375 C8.55347656 13.51515625 8.54445313 14.5928125 8.53515625 15.703125 C8.52355469 16.52296875 8.51195312 17.3428125 8.5 18.1875 C9.16 18.1875 9.82 18.1875 10.5 18.1875 C10.17 19.5075 9.84 20.8275 9.5 22.1875 C7.06183415 22.2684723 4.62635616 22.32796972 2.1875 22.375 C1.15206055 22.41270508 1.15206055 22.41270508 0.09570312 22.45117188 C-4.97540295 22.52466617 -4.97540295 22.52466617 -7.45703125 20.9296875 C-9.41892483 17.65251695 -8.85705999 14.93662989 -8.5 11.1875 C-5.46474514 9.16399676 -4.30573798 8.86625982 -0.8125 8.5625 C-0.00425781 8.48773437 0.80398438 8.41296875 1.63671875 8.3359375 C2.55904297 8.26246094 2.55904297 8.26246094 3.5 8.1875 C2.84 7.1975 2.18 6.2075 1.5 5.1875 C-0.70725073 4.82387182 -0.70725073 4.82387182 -3.125 5 C-3.94226563 5.02707031 -4.75953125 5.05414062 -5.6015625 5.08203125 C-6.54128906 5.13423828 -6.54128906 5.13423828 -7.5 5.1875 C-7.5 3.8675 -7.5 2.5475 -7.5 1.1875 C-4.71398777 0.25882926 -2.88933911 0.02407783 0 0 Z M-3.5 13.1875 C-3.17 14.8375 -2.84 16.4875 -2.5 18.1875 C-0.52 17.8575 1.46 17.5275 3.5 17.1875 C3.5 15.5375 3.5 13.8875 3.5 12.1875 C-0.12885324 12.03600702 -0.12885324 12.03600702 -3.5 13.1875 Z " fill="#FFFFFF" transform="translate(725.5,742.8125)"/>
<path d="M0 0 C0.66 -0.03738281 1.32 -0.07476563 2 -0.11328125 C5.07986941 0.54239407 6.16532636 1.78373522 8 4.3125 C8.390625 7.765625 8.390625 7.765625 8.25 11.5625 C8.21390625 12.82578125 8.1778125 14.0890625 8.140625 15.390625 C8.07101562 16.83695313 8.07101562 16.83695313 8 18.3125 C8.66 18.3125 9.32 18.3125 10 18.3125 C10 19.6325 10 20.9525 10 22.3125 C7.39472895 22.42042837 4.79391689 22.49974878 2.1875 22.5625 C1.44951172 22.59601562 0.71152344 22.62953125 -0.04882812 22.6640625 C-5.50910274 22.762891 -5.50910274 22.762891 -7.98828125 20.48828125 C-9.35139067 17.55680655 -9.40780404 15.50696502 -9 12.3125 C-7.36704163 10.13522218 -6.41305271 9.40595407 -3.73828125 8.80078125 C-2.93777344 8.74277344 -2.13726563 8.68476562 -1.3125 8.625 C-0.10013672 8.52638672 -0.10013672 8.52638672 1.13671875 8.42578125 C1.75160156 8.38839844 2.36648438 8.35101562 3 8.3125 C3 7.3225 3 6.3325 3 5.3125 C-0.63 5.3125 -4.26 5.3125 -8 5.3125 C-8 3.9925 -8 2.6725 -8 1.3125 C-5.35718479 0.4315616 -2.76689789 0.13937732 0 0 Z M-4 14.3125 C-3.67 15.6325 -3.34 16.9525 -3 18.3125 C-1.02 17.9825 0.96 17.6525 3 17.3125 C3 15.6625 3 14.0125 3 12.3125 C-1.04622502 11.94269987 -1.04622502 11.94269987 -4 14.3125 Z " fill="#FFFFFF" transform="translate(682,742.6875)"/>
<path d="M0 0 C2.60952666 2.79185167 2.36120438 5.02600101 2.4765625 8.7890625 C2.63125237 12.95242984 2.83897964 16.85110653 3.7890625 20.9140625 C1.1831736 21.04900496 -1.41575861 21.14808549 -4.0234375 21.2265625 C-4.76142578 21.26845703 -5.49941406 21.31035156 -6.25976562 21.35351562 C-8.41796875 21.40234375 -8.41796875 21.40234375 -12.2109375 20.9140625 C-14.77849409 17.96410386 -15.23947259 16.64170738 -15.0859375 12.7265625 C-14.2109375 9.9140625 -14.2109375 9.9140625 -11.2109375 7.9140625 C-9.16796875 7.5 -9.16796875 7.5 -7.0234375 7.2890625 C-5.7653125 7.1653125 -4.5071875 7.0415625 -3.2109375 6.9140625 C-3.2109375 5.9240625 -3.2109375 4.9340625 -3.2109375 3.9140625 C-6.5109375 3.9140625 -9.8109375 3.9140625 -13.2109375 3.9140625 C-13.2109375 2.5940625 -13.2109375 1.2740625 -13.2109375 -0.0859375 C-8.71162571 -1.5857081 -4.30159519 -2.11279764 0 0 Z M-10.2109375 12.9140625 C-9.8809375 14.2340625 -9.5509375 15.5540625 -9.2109375 16.9140625 C-7.2309375 16.5840625 -5.2509375 16.2540625 -3.2109375 15.9140625 C-3.2109375 14.2640625 -3.2109375 12.6140625 -3.2109375 10.9140625 C-7.25716252 10.54426237 -7.25716252 10.54426237 -10.2109375 12.9140625 Z " fill="#FFFFFF" transform="translate(623.2109375,744.0859375)"/>
<path d="M0 0 C2.9375 2 2.9375 2 5 5 C5.40476927 7.80743814 5.24230971 10.14074541 5 13 C-0.94 13.495 -0.94 13.495 -7 14 C-7 14.99 -7 15.98 -7 17 C-3.04 17 0.92 17 5 17 C5 18.32 5 19.64 5 21 C2.44183084 22.27908458 0.48152006 22.23974681 -2.375 22.3125 C-3.33148438 22.34988281 -4.28796875 22.38726563 -5.2734375 22.42578125 C-8 22 -8 22 -10.31640625 20.3828125 C-13.54593575 15.81201669 -12.77063807 10.34038659 -12 5 C-8.85022119 -0.05873566 -5.81987429 -1.03926327 0 0 Z M-5 4 C-6.485 6.475 -6.485 6.475 -8 9 C-5.36 9 -2.72 9 0 9 C-0.33 7.68 -0.66 6.36 -1 5 C-2.32 4.67 -3.64 4.34 -5 4 Z " fill="#FFFFFF" transform="translate(237,743)"/>
<path d="M0 0 C0.7734375 -0.01417969 1.546875 -0.02835938 2.34375 -0.04296875 C4.5 0.1875 4.5 0.1875 7.5 2.1875 C7.9765625 5.234375 7.9765625 5.234375 8.125 8.9375 C8.32622219 13.44104434 8.67030076 17.75336964 9.5 22.1875 C7.06183415 22.2684723 4.62635616 22.32796972 2.1875 22.375 C1.15206055 22.41270508 1.15206055 22.41270508 0.09570312 22.45117188 C-4.97540295 22.52466617 -4.97540295 22.52466617 -7.45703125 20.9296875 C-9.41892483 17.65251695 -8.85705999 14.93662989 -8.5 11.1875 C-5.46474514 9.16399676 -4.30573798 8.86625982 -0.8125 8.5625 C-0.00425781 8.48773437 0.80398438 8.41296875 1.63671875 8.3359375 C2.55904297 8.26246094 2.55904297 8.26246094 3.5 8.1875 C2.84 7.1975 2.18 6.2075 1.5 5.1875 C-0.70725073 4.82387182 -0.70725073 4.82387182 -3.125 5 C-3.94226563 5.02707031 -4.75953125 5.05414062 -5.6015625 5.08203125 C-6.54128906 5.13423828 -6.54128906 5.13423828 -7.5 5.1875 C-7.5 3.8675 -7.5 2.5475 -7.5 1.1875 C-4.71398777 0.25882926 -2.88933911 0.02407783 0 0 Z M-3.5 13.1875 C-3.17 14.8375 -2.84 16.4875 -2.5 18.1875 C-0.52 17.8575 1.46 17.5275 3.5 17.1875 C3.5 15.5375 3.5 13.8875 3.5 12.1875 C-0.12885324 12.03600702 -0.12885324 12.03600702 -3.5 13.1875 Z " fill="#FFFFFF" transform="translate(382.5,742.8125)"/>
<path d="M0 0 C2.1112113 1.56386022 2.69314938 2.82361451 3.6875 5.25 C4.27098136 9.91027324 4.24652341 14.0049024 2.3125 18.3125 C0.46401211 20.51646634 -0.49259807 21.15344784 -3.3359375 21.48828125 C-9.55664624 21.68461591 -9.55664624 21.68461591 -12.8125 19.8125 C-15.60714133 15.03832106 -15.71324817 10.2173092 -14.625 4.875 C-11.50531601 -1.36436798 -6.48173554 -2.1021845 0 0 Z M-8.4375 4.875 C-10.55282228 7.14754967 -10.55282228 7.14754967 -10.75 10.25 C-10.278178 13.48535087 -9.50257834 14.87741513 -7.3125 17.25 C-4.83983235 16.90555119 -4.83983235 16.90555119 -2.3125 16.25 C-0.72458685 13.07417369 -0.90230259 9.70838847 -1.3125 6.25 C-2.5231557 4.19995161 -2.5231557 4.19995161 -4.3125 3.25 C-6.49356686 3.04751663 -6.49356686 3.04751663 -8.4375 4.875 Z " fill="#FFFFFF" transform="translate(432.3125,743.75)"/>
<path d="M0 0 C5.94 0 11.88 0 18 0 C18 1.32 18 2.64 18 4 C13.71 4 9.42 4 5 4 C5 6.97 5 9.94 5 13 C8.63 13 12.26 13 16 13 C16 14.65 16 16.3 16 18 C12.37 18 8.74 18 5 18 C5 21.63 5 25.26 5 29 C3.35 29 1.7 29 0 29 C0 19.43 0 9.86 0 0 Z " fill="#FFFFFF" transform="translate(269,736)"/>
<path d="M0 0 C2.1112113 1.56386022 2.69314938 2.82361451 3.6875 5.25 C4.27098136 9.91027324 4.24652341 14.0049024 2.3125 18.3125 C0.46401211 20.51646634 -0.49259807 21.15344784 -3.3359375 21.48828125 C-9.55664624 21.68461591 -9.55664624 21.68461591 -12.8125 19.8125 C-15.60714133 15.03832106 -15.71324817 10.2173092 -14.625 4.875 C-11.50531601 -1.36436798 -6.48173554 -2.1021845 0 0 Z M-8.5 4.6875 C-10.96303008 8.16971494 -10.32941428 10.34513146 -9.671875 14.421875 C-9.55328125 15.02515625 -9.4346875 15.6284375 -9.3125 16.25 C-5.83987381 17.33943338 -5.83987381 17.33943338 -2.5 16.3125 C-0.63814822 13.07875743 -0.73639935 9.88853044 -1.3125 6.25 C-2.5231557 4.19995161 -2.5231557 4.19995161 -4.3125 3.25 C-6.47018966 3.0669407 -6.47018966 3.0669407 -8.5 4.6875 Z " fill="#FFFFFF" transform="translate(497.3125,743.75)"/>
<path d="M0 0 C2.42276224 1.88437063 2.91187034 3.33925297 3.6875 6.3125 C4.13680031 11.97368391 3.81242977 15.38472613 0.6875 20.3125 C-2.76281261 22.03765631 -6.53966304 21.80927924 -10.3125 21.3125 C-13.34465675 19.11418636 -14.12904398 17.86286806 -15.3125 14.3125 C-15.74171013 5.44215723 -15.74171013 5.44215723 -13.3125 1.3125 C-9.47428269 -1.67278013 -4.4921927 -1.33551675 0 0 Z M-9.3125 4.3125 C-10.9048093 7.49711859 -10.70155037 10.84641489 -10.3125 14.3125 C-9.30761774 16.48750647 -9.30761774 16.48750647 -7.3125 17.3125 C-4.6852086 17.23716753 -4.6852086 17.23716753 -2.3125 16.3125 C-0.71430446 13.11610892 -0.67015475 9.77128213 -1.3125 6.3125 C-4.38825119 3.56926245 -5.34440614 2.98980205 -9.3125 4.3125 Z " fill="#FFFFFF" transform="translate(303.3125,743.6875)"/>
<path d="M0 0 C2.66430624 4.14447637 2.2460844 8.73213094 2.1875 13.5 C2.18298828 14.19738281 2.17847656 14.89476562 2.17382812 15.61328125 C2.1621002 17.32555803 2.14416653 19.03779033 2.125 20.75 C0.475 20.75 -1.175 20.75 -2.875 20.75 C-3.205 15.14 -3.535 9.53 -3.875 3.75 C-6.185 3.75 -8.495 3.75 -10.875 3.75 C-10.875 9.36 -10.875 14.97 -10.875 20.75 C-12.525 20.75 -14.175 20.75 -15.875 20.75 C-15.875 13.82 -15.875 6.89 -15.875 -0.25 C-3.11029412 -2.07352941 -3.11029412 -2.07352941 0 0 Z " fill="#FFFFFF" transform="translate(753.875,744.25)"/>
<path d="M0 0 C1.98 0 3.96 0 6 0 C6.07455949 4.02009457 6.12879358 8.03991733 6.16479492 12.06054688 C6.17981428 13.42617816 6.20023608 14.79176176 6.22631836 16.15722656 C6.26300137 18.12803905 6.27818551 20.09921408 6.29296875 22.0703125 C6.31653442 23.84559326 6.31653442 23.84559326 6.34057617 25.65673828 C5.94279595 29.56154288 4.85249407 33.14750593 2 36 C0.48071962 36.07179964 -1.04167482 36.08392007 -2.5625 36.0625 C-3.38878906 36.05347656 -4.21507812 36.04445313 -5.06640625 36.03515625 C-5.70449219 36.02355469 -6.34257813 36.01195312 -7 36 C-7 34.35 -7 32.7 -7 31 C-5.02 30.34 -3.04 29.68 -1 29 C-0.67 19.43 -0.34 9.86 0 0 Z " fill="#FFFFFF" transform="translate(604,695)"/>
<path d="M0 0 C1.65 0 3.3 0 5 0 C5.33 4.95 5.66 9.9 6 15 C9.79788698 16.12126781 9.79788698 16.12126781 13 16 C13 10.72 13 5.44 13 0 C14.65 0 16.3 0 18 0 C18 6.93 18 13.86 18 21 C4.55341554 21.37008948 4.55341554 21.37008948 2.11328125 19.73828125 C-0.50368622 15.65213906 -0.10645574 11.49721968 -0.0625 6.75 C-0.05347656 5.48671875 -0.04445313 4.2234375 -0.03515625 2.921875 C-0.02355469 1.95765625 -0.01195312 0.9934375 0 0 Z " fill="#FFFFFF" transform="translate(554,744)"/>
<path d="M0 0 C2.74442499 3.81655705 2.27561524 7.23575717 2.08984375 11.80859375 C2.07179688 12.6490625 2.05375 13.48953125 2.03515625 14.35546875 C1.98815173 16.4236677 1.91641099 18.49127816 1.83984375 20.55859375 C0.51984375 20.55859375 -0.80015625 20.55859375 -2.16015625 20.55859375 C-2.82015625 15.27859375 -3.48015625 9.99859375 -4.16015625 4.55859375 C-7.13015625 4.06359375 -7.13015625 4.06359375 -10.16015625 3.55859375 C-10.16015625 9.16859375 -10.16015625 14.77859375 -10.16015625 20.55859375 C-11.81015625 20.55859375 -13.46015625 20.55859375 -15.16015625 20.55859375 C-15.16015625 13.62859375 -15.16015625 6.69859375 -15.16015625 -0.44140625 C-3.21819196 -2.14740115 -3.21819196 -2.14740115 0 0 Z " fill="#FFFFFF" transform="translate(645.16015625,744.44140625)"/>
<path d="M0 0 C2.74442499 3.81655705 2.27561524 7.23575717 2.08984375 11.80859375 C2.07179688 12.6490625 2.05375 13.48953125 2.03515625 14.35546875 C1.98815173 16.4236677 1.91641099 18.49127816 1.83984375 20.55859375 C0.51984375 20.55859375 -0.80015625 20.55859375 -2.16015625 20.55859375 C-2.82015625 15.27859375 -3.48015625 9.99859375 -4.16015625 4.55859375 C-7.13015625 4.06359375 -7.13015625 4.06359375 -10.16015625 3.55859375 C-10.16015625 9.16859375 -10.16015625 14.77859375 -10.16015625 20.55859375 C-11.81015625 20.55859375 -13.46015625 20.55859375 -15.16015625 20.55859375 C-15.16015625 13.62859375 -15.16015625 6.69859375 -15.16015625 -0.44140625 C-3.21819196 -2.14740115 -3.21819196 -2.14740115 0 0 Z " fill="#FFFFFF" transform="translate(347.16015625,744.44140625)"/>
<path d="M0 0 C0.90238747 2.70716242 1.11851302 4.23776768 1.09765625 7.01171875 C1.09443359 7.76904297 1.09121094 8.52636719 1.08789062 9.30664062 C1.07951172 10.09232422 1.07113281 10.87800781 1.0625 11.6875 C1.05798828 12.48478516 1.05347656 13.28207031 1.04882812 14.10351562 C1.0370585 16.06904257 1.01912348 18.03453085 1 20 C-0.65 20 -2.3 20 -4 20 C-4.33 14.72 -4.66 9.44 -5 4 C-6.98 4 -8.96 4 -11 4 C-11.33 9.28 -11.66 14.56 -12 20 C-13.32 20 -14.64 20 -16 20 C-16 13.07 -16 6.14 -16 -1 C-4.4 -2.93333333 -4.4 -2.93333333 0 0 Z " fill="#FFFFFF" transform="translate(456,745)"/>
<path d="M0 0 C1.65 0 3.3 0 5 0 C5.33 4.95 5.66 9.9 6 15 C9 16.33333333 9 16.33333333 12 15 C12.33 10.05 12.66 5.1 13 0 C14.32 0 15.64 0 17 0 C17 6.93 17 13.86 17 21 C14.751875 21.103125 12.50375 21.20625 10.1875 21.3125 C8.29064453 21.39951172 8.29064453 21.39951172 6.35546875 21.48828125 C3 21 3 21 1.0625 19 C-0.29051882 15.17971157 -0.32666069 11.68034132 -0.1875 7.6875 C-0.17396484 6.94693359 -0.16042969 6.20636719 -0.14648438 5.44335938 C-0.11135979 3.62858925 -0.05755972 1.81419712 0 0 Z " fill="#FFFFFF" transform="translate(310,744)"/>
<path d="M0 0 C5.28 0 10.56 0 16 0 C16 5.57546696 15.44338731 6.2772805 12 10.3125 C11.2575 11.19550781 10.515 12.07851563 9.75 12.98828125 C9.1725 13.65214844 8.595 14.31601562 8 15 C10.64 15.33 13.28 15.66 16 16 C16 17.65 16 19.3 16 21 C10.72 21 5.44 21 0 21 C0 15.51812106 1.25567249 13.69663145 4.5 9.6875 C4.92925781 9.13771484 5.35851562 8.58792969 5.80078125 8.02148438 C6.85647765 6.67253898 7.92682441 5.33508154 9 4 C6.03 4 3.06 4 0 4 C0 2.68 0 1.36 0 0 Z " fill="#FFFFFF" transform="translate(206,744)"/>
<path d="M0 0 C1.65 0 3.3 0 5 0 C5.0992011 4.32326033 5.17162265 8.64591024 5.21972656 12.9699707 C5.23978825 14.43948921 5.26704478 15.90892841 5.30175781 17.37817383 C5.35052141 19.49580487 5.37302161 21.61237687 5.390625 23.73046875 C5.41157227 25.00301514 5.43251953 26.27556152 5.45410156 27.58666992 C4.92364639 31.57392466 3.83914715 33.20554313 1 36 C-1.140625 36.48828125 -1.140625 36.48828125 -3.25 36.3125 C-4.4875 36.209375 -5.725 36.10625 -7 36 C-7 34.35 -7 32.7 -7 31 C-5.35 30.67 -3.7 30.34 -2 30 C-0.92044788 26.76134365 -0.79558259 24.20844162 -0.68359375 20.80078125 C-0.64169922 19.59228516 -0.59980469 18.38378906 -0.55664062 17.13867188 C-0.51732422 15.87603516 -0.47800781 14.61339844 -0.4375 13.3125 C-0.37272461 11.40114258 -0.37272461 11.40114258 -0.30664062 9.45117188 C-0.2004514 6.30089148 -0.09840467 3.15053161 0 0 Z " fill="#FFFFFF" transform="translate(621,695)"/>
<path d="M0 0 C2.1640625 -0.29296875 2.1640625 -0.29296875 4.625 -0.1875 C5.44226563 -0.16042969 6.25953125 -0.13335938 7.1015625 -0.10546875 C8.04128906 -0.05326172 8.04128906 -0.05326172 9 0 C9 1.32 9 2.64 9 4 C7.35 4.33 5.7 4.66 4 5 C3.67 6.32 3.34 7.64 3 9 C4.65 9 6.3 9 8 9 C8 10.32 8 11.64 8 13 C6.35 13 4.7 13 3 13 C3 18.61 3 24.22 3 30 C1.35 30 -0.3 30 -2 30 C-2 24.39 -2 18.78 -2 13 C-2.66 13 -3.32 13 -4 13 C-4 11.68 -4 10.36 -4 9 C-3.34 9 -2.68 9 -2 9 C-2.04125 8.071875 -2.0825 7.14375 -2.125 6.1875 C-2 3 -2 3 0 0 Z " fill="#FFFFFF" transform="translate(473,735)"/>
<path d="M0 0 C1.65 0 3.3 0 5 0 C5 1.98 5 3.96 5 6 C6.98 6 8.96 6 11 6 C11 7.32 11 8.64 11 10 C9.02 10 7.04 10 5 10 C5.33 13.96 5.66 17.92 6 22 C7.65 22.33 9.3 22.66 11 23 C11 24.32 11 25.64 11 27 C3.59946476 27.36396075 3.59946476 27.36396075 1.25 25.9375 C-0.67816053 22.94885117 -0.2839325 20.31621405 -0.1875 16.8125 C-0.16042969 15.54019531 -0.13335937 14.26789062 -0.10546875 12.95703125 C-0.07066406 11.98121094 -0.03585937 11.00539063 0 10 C-0.99 10 -1.98 10 -3 10 C-3 8.68 -3 7.36 -3 6 C-2.01 6 -1.02 6 0 6 C0 4.02 0 2.04 0 0 Z " fill="#FFFFFF" transform="translate(396,738)"/>
<path d="M0 0 C1.65 0 3.3 0 5 0 C5 1.98 5 3.96 5 6 C6.98 6 8.96 6 11 6 C11 7.32 11 8.64 11 10 C9.02 10 7.04 10 5 10 C5.33 13.96 5.66 17.92 6 22 C7.65 22.33 9.3 22.66 11 23 C11 24.32 11 25.64 11 27 C3.25 27.125 3.25 27.125 1 26 C-0.14077657 22.57767028 -0.09815117 19.91326783 -0.0625 16.3125 C-0.05347656 15.13300781 -0.04445313 13.95351563 -0.03515625 12.73828125 C-0.02355469 11.83464844 -0.01195312 10.93101562 0 10 C-0.66 10 -1.32 10 -2 10 C-2 8.68 -2 7.36 -2 6 C-1.34 6 -0.68 6 0 6 C0 4.02 0 2.04 0 0 Z " fill="#FFFFFF" transform="translate(661,738)"/>
<path d="M0 0 C1.65 0 3.3 0 5 0 C5 11.55 5 23.1 5 35 C3.35 35 1.7 35 0 35 C0 23.45 0 11.9 0 0 Z " fill="#FFFFFF" transform="translate(406,685)"/>
<path d="M0 0 C1.65 0 3.3 0 5 0 C5 11.55 5 23.1 5 35 C3.35 35 1.7 35 0 35 C0 23.45 0 11.9 0 0 Z " fill="#FFFFFF" transform="translate(345,685)"/>
<path d="M0 0 C1.65 0 3.3 0 5 0 C5 10.23 5 20.46 5 31 C3.35 31 1.7 31 0 31 C0 20.77 0 10.54 0 0 Z " fill="#FFFFFF" transform="translate(633,689)"/>
<path d="M0 0 C0 1.65 0 3.3 0 5 C-2.31 5.66 -4.62 6.32 -7 7 C-7 11.95 -7 16.9 -7 22 C-8.32 22 -9.64 22 -11 22 C-11 15.07 -11 8.14 -11 1 C-2 0 -2 0 0 0 Z " fill="#FFFFFF" transform="translate(706,743)"/>
<path d="M0 0 C0 1.65 0 3.3 0 5 C-2.31 5.66 -4.62 6.32 -7 7 C-7 11.95 -7 16.9 -7 22 C-8.32 22 -9.64 22 -11 22 C-11 15.07 -11 8.14 -11 1 C-2 0 -2 0 0 0 Z " fill="#FFFFFF" transform="translate(516,743)"/>
<path d="M0 0 C0 1.65 0 3.3 0 5 C-2.31 5.66 -4.62 6.32 -7 7 C-7 11.95 -7 16.9 -7 22 C-8.32 22 -9.64 22 -11 22 C-11 15.07 -11 8.14 -11 1 C-2 0 -2 0 0 0 Z " fill="#FFFFFF" transform="translate(257,743)"/>
<path d="M0 0 C1.65 0 3.3 0 5 0 C5 6.93 5 13.86 5 21 C3.35 21 1.7 21 0 21 C0 14.07 0 7.14 0 0 Z " fill="#FFFFFF" transform="translate(709,744)"/>
<path d="M0 0 C1.65 0 3.3 0 5 0 C5 6.93 5 13.86 5 21 C3.35 21 1.7 21 0 21 C0 14.07 0 7.14 0 0 Z " fill="#FFFFFF" transform="translate(409,744)"/>
<path d="M0 0 C1.32 0 2.64 0 4 0 C4 6.93 4 13.86 4 21 C2.68 21 1.36 21 0 21 C0 14.07 0 7.14 0 0 Z " fill="#FFFFFF" transform="translate(793,744)"/>
<path d="M0 0 C1.32 0 2.64 0 4 0 C4 6.93 4 13.86 4 21 C2.68 21 1.36 21 0 21 C0 14.07 0 7.14 0 0 Z " fill="#FFFFFF" transform="translate(652,744)"/>
<path d="M0 0 C0.7425 0.2475 1.485 0.495 2.25 0.75 C1.92 2.07 1.59 3.39 1.25 4.75 C0.26 4.75 -0.73 4.75 -1.75 4.75 C-2.08 5.41 -2.41 6.07 -2.75 6.75 C0.715 6.255 0.715 6.255 4.25 5.75 C4.25 7.07 4.25 8.39 4.25 9.75 C0.62 10.41 -3.01 11.07 -6.75 11.75 C-7.23430493 4.48542601 -7.23430493 4.48542601 -5.0625 1.1875 C-2.75 -0.25 -2.75 -0.25 0 0 Z " fill="#FFFFFF" transform="translate(323.75,722.25)"/>
<path d="M0 0 C0.94875 0.04125 1.8975 0.0825 2.875 0.125 C3.205 1.445 3.535 2.765 3.875 4.125 C2.555 4.125 1.235 4.125 -0.125 4.125 C-0.455 5.115 -0.785 6.105 -1.125 7.125 C0.855 6.795 2.835 6.465 4.875 6.125 C5.205 7.115 5.535 8.105 5.875 9.125 C2.245 9.785 -1.385 10.445 -5.125 11.125 C-5.125 9.805 -5.125 8.485 -5.125 7.125 C-5.16625 6.25875 -5.2075 5.3925 -5.25 4.5 C-5.04518841 0.60857983 -3.74248959 0.14969958 0 0 Z " fill="#FFFFFF" transform="translate(775.125,679.875)"/>
<path d="M0 0 C2.05859375 0.05859375 2.05859375 0.05859375 4.4375 0.4375 C7.60585075 0.93337038 8.87121138 1.04292954 12 0 C12 1.65 12 3.3 12 5 C8.24376114 5.76832158 5.67323747 6.01330689 2 5 C1.01 5.33 0.02 5.66 -1 6 C-1.625 4.125 -1.625 4.125 -2 2 C-1.34 1.34 -0.68 0.68 0 0 Z " fill="#FFFFFF" transform="translate(630,681)"/>
<path d="M0 0 C1.65 0 3.3 0 5 0 C5 1.98 5 3.96 5 6 C3.35 6 1.7 6 0 6 C0 4.02 0 2.04 0 0 Z " fill="#FFFFFF" transform="translate(220,722)"/>
<path d="M0 0 C1.65 0 3.3 0 5 0 C5 1.98 5 3.96 5 6 C3.35 6 1.7 6 0 6 C0 4.02 0 2.04 0 0 Z " fill="#FFFFFF" transform="translate(213,722)"/>
<path d="M0 0 C1.65 0 3.3 0 5 0 C5 1.98 5 3.96 5 6 C3.35 6 1.7 6 0 6 C0 4.02 0 2.04 0 0 Z " fill="#FFFFFF" transform="translate(384,690)"/>
<path d="M0 0 C1.65 0 3.3 0 5 0 C5 1.98 5 3.96 5 6 C3.35 6 1.7 6 0 6 C0 4.02 0 2.04 0 0 Z " fill="#FFFFFF" transform="translate(378,690)"/>
<path d="M0 0 C1.65 0 3.3 0 5 0 C5 1.65 5 3.3 5 5 C3.35 5 1.7 5 0 5 C0 3.35 0 1.7 0 0 Z " fill="#FFFFFF" transform="translate(709,736)"/>
<path d="M0 0 C1.65 0 3.3 0 5 0 C5 1.65 5 3.3 5 5 C3.35 5 1.7 5 0 5 C0 3.35 0 1.7 0 0 Z " fill="#FFFFFF" transform="translate(409,736)"/>
<path d="M0 0 C1.65 0 3.3 0 5 0 C5 1.65 5 3.3 5 5 C3.35 5 1.7 5 0 5 C0 3.35 0 1.7 0 0 Z " fill="#FFFFFF" transform="translate(667,686)"/>
<path d="M0 0 C1.65 0 3.3 0 5 0 C5 1.65 5 3.3 5 5 C3.35 5 1.7 5 0 5 C0 3.35 0 1.7 0 0 Z " fill="#FFFFFF" transform="translate(661,686)"/>
<path d="M0 0 C1.65 0 3.3 0 5 0 C5 1.65 5 3.3 5 5 C3.35 5 1.7 5 0 5 C0 3.35 0 1.7 0 0 Z " fill="#FFFFFF" transform="translate(621,686)"/>
<path d="M0 0 C1.65 0 3.3 0 5 0 C5 1.65 5 3.3 5 5 C3.35 5 1.7 5 0 5 C0 3.35 0 1.7 0 0 Z " fill="#FFFFFF" transform="translate(304,686)"/>
<path d="M0 0 C1.65 0 3.3 0 5 0 C5 1.65 5 3.3 5 5 C3.35 5 1.7 5 0 5 C0 3.35 0 1.7 0 0 Z " fill="#FFFFFF" transform="translate(235,686)"/>
<path d="M0 0 C1.65 0 3.3 0 5 0 C5 1.65 5 3.3 5 5 C3.35 5 1.7 5 0 5 C0 3.35 0 1.7 0 0 Z " fill="#FFFFFF" transform="translate(195,686)"/>
<path d="M0 0 C1.65 0 3.3 0 5 0 C5 1.65 5 3.3 5 5 C3.35 5 1.7 5 0 5 C0 3.35 0 1.7 0 0 Z " fill="#FFFFFF" transform="translate(189,686)"/>
<path d="M0 0 C1.32 0 2.64 0 4 0 C4 1.65 4 3.3 4 5 C2.68 5 1.36 5 0 5 C0 3.35 0 1.7 0 0 Z " fill="#FFFFFF" transform="translate(793,736)"/>
<path d="M0 0 C1.32 0 2.64 0 4 0 C4 1.65 4 3.3 4 5 C2.68 5 1.36 5 0 5 C0 3.35 0 1.7 0 0 Z " fill="#FFFFFF" transform="translate(652,736)"/>
</svg>
